<svg xmlns="http://www.w3.org/2000/svg" width="149.11" height="149.051" viewBox="0 0 149.11 149.051">
  <path id="Tracé_2660" data-name="Tracé 2660" d="M942.047,501.128l-19.34,19.34a8.384,8.384,0,0,0,0,11.859l34.957,34.915a8.38,8.38,0,0,1,0,11.857L922.7,614.07a8.381,8.381,0,0,0,0,11.855l19.344,19.344a8.385,8.385,0,0,0,11.855,0L988.874,610.3a8.382,8.382,0,0,1,11.855,0l34.972,34.972a8.385,8.385,0,0,0,11.855,0l19.344-19.344a8.381,8.381,0,0,0,0-11.855l-34.968-34.97a8.382,8.382,0,0,1,0-11.857l34.957-34.915a8.383,8.383,0,0,0,0-11.859l-19.34-19.34a8.382,8.382,0,0,0-11.855,0L1000.73,536.1a8.385,8.385,0,0,1-11.855,0L953.9,501.128A8.382,8.382,0,0,0,942.047,501.128Z" transform="translate(-920.247 -498.672)" fill="#ef5713"/>
</svg>
